<?xml version="1.0" encoding="UTF-8" standalone="no"?>
<!-- Created with Inkscape (http://www.inkscape.org/) -->

<svg
   xmlns:dc="http://purl.org/dc/elements/1.1/"
   xmlns:cc="http://creativecommons.org/ns#"
   xmlns:rdf="http://www.w3.org/1999/02/22-rdf-syntax-ns#"
   xmlns:svg="http://www.w3.org/2000/svg"
   xmlns="http://www.w3.org/2000/svg"
   xmlns:sodipodi="http://sodipodi.sourceforge.net/DTD/sodipodi-0.dtd"
   xmlns:inkscape="http://www.inkscape.org/namespaces/inkscape"
   version="1.1"
   id="svg2"
   width="765.44"
   height="681.59998"
   viewBox="0 0 765.44 681.59998"
   sodipodi:docname="NGTB tech bar logo_hirez.svg"
   inkscape:version="0.92.3 (2405546, 2018-03-11)">
  <metadata
     id="metadata8">
    <rdf:RDF>
      <cc:Work
         rdf:about="">
        <dc:format>image/svg+xml</dc:format>
        <dc:type
           rdf:resource="http://purl.org/dc/dcmitype/StillImage" />
        <dc:title></dc:title>
      </cc:Work>
    </rdf:RDF>
  </metadata>
  <defs
     id="defs6" />
  <sodipodi:namedview
     pagecolor="#ffffff"
     bordercolor="#666666"
     borderopacity="1"
     objecttolerance="10"
     gridtolerance="10"
     guidetolerance="10"
     inkscape:pageopacity="0"
     inkscape:pageshadow="2"
     inkscape:window-width="1173"
     inkscape:window-height="699"
     id="namedview4"
     showgrid="false"
     inkscape:zoom="0.34624414"
     inkscape:cx="382.72"
     inkscape:cy="340.79999"
     inkscape:window-x="2203"
     inkscape:window-y="214"
     inkscape:window-maximized="0"
     inkscape:current-layer="svg2" />
  <path
     style="fill:#000000;stroke-width:0.63999999"
     d="m 376.32,667.58104 c -25.41667,-5.64679 -45.96011,-22.76103 -58.35789,-48.61644 -4.76103,-9.92907 -10.01124,-26.52168 -15.51862,-49.04462 -9.51053,-38.89417 -13.76633,-55.80875 -16.3443,-64.95999 -4.53935,-16.1138 -5.10713,-19.83039 -5.86634,-38.4 -0.8089,-19.78507 -0.38472,-48.18413 0.75713,-50.69023 0.41799,-0.91738 2.23824,-2.48737 4.045,-3.48886 l 3.28502,-1.82091 11.4217,0.18987 c 13.18499,0.21918 14.83176,0.65223 18.96272,4.98665 1.50771,1.58197 3.51029,3.27397 4.45017,3.75999 3.27952,1.69591 10.02396,3.51299 17.96541,4.8402 11.23718,1.87803 12.27234,2.16925 26.24,7.38189 6.864,2.56161 18.52389,6.29256 25.91087,8.29101 7.38697,1.99845 14.15565,4.00835 15.04151,4.46644 2.93996,1.52032 4.04096,3.25269 3.59113,5.65049 -0.48021,2.55978 -1.49943,3.56329 -5.82351,5.73381 -7.1441,3.58605 -11.58537,10.52126 -16.57885,25.88852 -4.88356,15.02895 -6.79376,24.87687 -7.72995,39.85112 -0.50449,8.06921 0.53709,21.38448 2.23892,28.62196 2.31381,9.84007 7.50878,21.67021 13.70877,31.21804 2.94615,4.537 4.48058,6.03094 13.47555,13.12 23.87286,18.81454 29.3102,23.87725 33.2627,30.97095 7.0755,12.69868 7.13919,22.59097 0.19437,30.18969 -6.09399,6.66778 -9.31896,7.99802 -25.69413,10.5984 -16.28046,2.58534 -34.2827,3.11814 -42.63738,1.26202 z m 38.90964,-1.96199 c 14.60995,-2.1383 17.07364,-2.70259 21.42262,-4.90637 4.52472,-2.29286 7.85274,-5.6023 10.04452,-9.98841 2.51301,-5.02899 2.5966,-9.49766 0.30625,-16.37144 -3.69916,-11.10187 -9.35512,-17.46666 -29.6387,-33.3532 -15.47874,-12.1233 -18.3656,-14.88278 -22.03339,-21.06115 -7.27687,-12.25784 -11.87952,-24.3264 -13.53851,-35.49912 -1.26952,-8.54972 -1.28917,-25.63939 -0.0404,-35.12659 1.70027,-12.9173 7.17908,-32.1556 11.94107,-41.9299 2.63307,-5.40451 7.93588,-10.84652 12.78581,-13.12142 3.67527,-1.72392 4.92484,-3.60307 4.10777,-6.17742 -0.60704,-1.91264 -3.55648,-3.06239 -18.23829,-7.10965 -7.90439,-2.17896 -19.23886,-5.81124 -25.18771,-8.07174 -11.31795,-4.30067 -17.38237,-6.04432 -25.40067,-7.30322 -13.46241,-2.11363 -18.80627,-4.10403 -23.86588,-8.88919 -1.86001,-1.75912 -4.2351,-3.5466 -5.27798,-3.97218 -1.08137,-0.44129 -6.33987,-0.90092 -12.23757,-1.06965 -10.0092,-0.28636 -10.45465,-0.24404 -13.86508,1.31731 -1.938,0.88724 -3.90836,2.28842 -4.37857,3.11373 -1.12695,1.978 -1.53078,41.66048 -0.58144,57.13486 0.77207,12.58471 1.66703,17.19966 7.0762,36.48887 2.16435,7.71815 6.08512,23.12385 8.71282,34.23491 10.57191,44.70272 15.70333,62.21994 22.03173,75.21006 11.78265,24.18589 30.00853,39.89277 53.85183,46.40899 11.12041,3.03911 21.45498,3.04941 42.00358,0.0416 z M 539.52,574.66057 c -29.23267,-2.13964 -46.80637,-16.32559 -64.93912,-52.42059 -9.87089,-19.64894 -15.01909,-38.94669 -15.04916,-56.41089 -0.009,-5.4712 -0.38938,-8.26545 -1.93172,-14.20561 -1.056,-4.06708 -1.92,-8.68521 -1.92,-10.2625 0,-2.51784 0.28305,-3.10111 2.31945,-4.77969 2.65981,-2.19245 8.11763,-4.05947 16.97917,-5.8083 3.39824,-0.67064 8.87024,-2.28912 12.16,-3.59662 10.0466,-3.99298 23.6731,-10.92107 28.06138,-14.26717 2.288,-1.74462 9.44346,-8.6749 15.90103,-15.40062 14.61927,-15.22636 15.41159,-15.47233 16.70152,-5.18493 2.04528,16.31144 -0.41822,34.6634 -6.58486,49.05415 -6.71423,15.66864 -7.70751,30.96304 -2.93982,45.26725 4.16635,12.50008 11.65974,21.95153 24.82589,31.313 16.71685,11.88611 25.22484,23.62606 26.16913,36.11007 0.75499,9.98146 -4.31187,15.49121 -16.81097,18.28039 -9.39261,2.09596 -22.92139,3.04549 -32.94192,2.31206 z m 25.92,-2.19385 c 16.5605,-2.4558 22.98459,-7.22806 22.84643,-16.97191 -0.0622,-4.38663 -2.30647,-11.2976 -5.36112,-16.50897 -3.0246,-5.16008 -12.50964,-14.44908 -20.36531,-19.94438 -12.44737,-8.70735 -20.66762,-18.7355 -24.85889,-30.32616 -2.72896,-7.54674 -3.53056,-13.61623 -3.11329,-23.57319 0.40412,-9.64319 1.58111,-14.79938 5.54089,-24.27375 5.5676,-13.32131 7.47608,-24.76829 6.86707,-41.18837 -0.41735,-11.25247 -0.73469,-13.12 -2.22939,-13.12 -0.55238,0 -7.50279,6.41083 -15.44536,14.24629 -15.4352,15.22705 -17.19757,16.55135 -29.39833,22.0909 -12.54692,5.6967 -17.06932,7.31547 -26.32878,9.42419 -5.21327,1.18726 -10.91244,2.8852 -12.66482,3.7732 -4.9837,2.52543 -5.28023,4.89589 -1.99311,15.93344 0.92556,3.10783 1.42255,6.84958 1.58459,11.92999 0.42654,13.37328 1.79135,22.20065 5.15196,33.32199 6.02546,19.94018 20.70228,46.23916 32.17123,57.64669 11.08889,11.02951 22.95099,16.65068 39.06985,18.51428 6.54524,0.75674 19.93809,0.29934 28.52638,-0.97424 z M 231.68,498.92799 c -27.0759,-3.45544 -48.81651,-13.93039 -60.41576,-29.10921 -6.6816,-8.74356 -9.00865,-15.0025 -12.5318,-33.70601 -3.85177,-20.44807 -11.41829,-55.49867 -13.20434,-61.16682 -3.76495,-11.94839 -3.37483,-15.1528 2.59742,-21.3344 4.84117,-5.01087 8.83014,-6.98505 16.2709,-8.05264 10.46706,-1.50178 18.68995,0.34763 27.44346,6.17233 3.04769,2.02798 9.58651,5.84723 14.53069,8.48723 19.73728,10.53893 24.16323,13.54182 25.02604,16.97952 0.63714,2.53858 -0.0284,4.26246 -3.41902,8.85561 -4.73203,6.41036 -6.71631,11.35268 -7.05052,17.56105 -0.24911,4.62727 -0.0896,5.63222 1.41635,8.92158 0.9334,2.0388 3.85878,6.36719 6.50086,9.61864 7.45217,9.17097 15.13954,15.84241 24.66565,21.40596 7.77836,4.5428 10.09704,8.47952 12.21539,20.73967 1.1631,6.7315 1.24498,8.49396 0.65132,14.01881 -1.1321,10.53573 -5.53796,17.36837 -12.85126,19.92981 -4.03751,1.41412 -13.72512,1.71517 -21.84538,0.67887 z m 22.08,-2.18752 c 6.07774,-2.74647 9.29769,-7.09077 10.91651,-14.72834 1.16167,-5.48071 1.14924,-9.86846 -0.0489,-17.25601 -1.84162,-11.35537 -4.11943,-15.60033 -10.34311,-19.27556 -10.20039,-6.0236 -19.68993,-14.27076 -27.19988,-23.63884 -6.2233,-7.76311 -7.23794,-10.19572 -7.24156,-17.36173 -0.003,-5.66695 0.15333,-6.40609 2.29934,-10.88 1.26634,-2.64 3.3249,-6.13192 4.57458,-7.75983 3.01463,-3.92703 3.683,-5.25853 3.683,-7.33719 0,-3.41226 -3.11378,-5.55533 -26.88,-18.50028 -4.4,-2.39658 -10.10837,-5.77613 -12.68526,-7.51011 -2.57689,-1.73397 -6.32089,-3.72285 -8.32,-4.41973 -7.2936,-2.5425 -19.55395,-2.19493 -26.21298,0.74315 -3.87954,1.71171 -10.09995,7.84326 -11.39372,11.23096 -1.25376,3.28292 -0.93407,6.41062 1.33803,13.09088 1.64803,4.84543 9.06748,38.83213 12.77999,58.54215 2.93487,15.58142 3.86009,19.41515 6.04116,25.03208 8.13148,20.94118 32.62365,36.40652 64.69278,40.84962 9.82502,1.36123 19.93601,1.01526 24,-0.82122 z M 29.12,489.64289 c -6.170653,-0.79661 -9.350911,-2.05133 -12.230618,-4.8254 -2.91286,-2.806 -4.079975,-5.8396 -4.085813,-10.61996 -0.0049,-3.98552 0.794782,-8.13071 4.806856,-24.91754 1.892889,-7.92 5.044365,-22.176 7.003281,-31.68 6.986035,-33.8939 9.273415,-43.34385 13.593654,-56.16 l 4.260858,-12.64 1.965891,6.4e-4 c 2.538767,6.4e-4 23.029475,3.54089 28.097776,4.85422 7.136313,1.8492 35.527555,12.95255 39.308115,15.37276 0.94968,0.60796 1.44,1.55299 1.44,2.77546 0,2.80979 -8.90706,10.77723 -15.888691,14.21257 -9.475194,4.66231 -15.096333,11.30146 -17.800576,21.0243 -0.930944,3.34713 -1.151296,6.47355 -1.12768,16 0.04192,16.90242 1.215097,21.22142 10.145261,37.34853 6.973824,12.59415 1.423718,22.10282 -15.172845,25.99473 -10.599433,2.48558 -35.897457,4.34639 -44.315469,3.25965 z m 31.435532,-2.30361 c 15.062062,-1.96932 20.792097,-3.81092 25.725575,-8.26802 5.023424,-4.53837 5.299085,-11.16693 0.792979,-19.06834 -8.066118,-14.14384 -9.782675,-20.66145 -9.819276,-37.28293 -0.02778,-12.61594 0.820038,-17.20718 4.45479,-24.12412 2.836742,-5.39833 7.56311,-9.80297 13.905094,-12.95857 2.499917,-1.24388 5.316956,-2.77595 6.260066,-3.40458 2.85337,-1.90189 10.07229,-9.10732 10.26492,-10.24574 0.24015,-1.41925 -3.93427,-3.67312 -15.17968,-8.19589 -11.58839,-4.6607 -20.022419,-7.70919 -24.89833,-8.99955 -4.400972,-1.16466 -28.102901,-5.34762 -28.440942,-5.0193 -0.1206,0.11713 -2.03794,5.50636 -4.260754,11.97607 -4.194674,12.20898 -6.715545,22.50849 -12.808524,52.33168 -1.977657,9.68 -5.028188,23.648 -6.778958,31.04 -6.433811,27.16447 -6.893343,31.12428 -4.20322,36.21934 1.714846,3.24789 6.334215,6.01629 11.659719,6.9877 4.38387,0.79964 24.132706,0.21431 33.326541,-0.98775 z M 412.48,438.13388 c -3.70216,-0.92236 -10.61457,-3.40152 -15.68,-5.62368 -1.936,-0.8493 -5.43584,-2.05591 -7.77743,-2.68134 -4.27442,-1.14167 -6.94257,-2.87863 -6.94257,-4.51955 0,-1.10397 2.49887,-3.44782 7.01076,-6.57589 5.95556,-4.12893 9.15106,-9.32144 13.77647,-22.38605 2.21739,-6.26306 4.89948,-13.83538 5.96022,-16.82738 4.74123,-13.37358 13.17763,-40.42236 16.12108,-51.68747 1.77157,-6.78011 5.20021,-19.30811 7.61918,-27.84 3.15187,-11.11685 5.60903,-21.85986 8.6714,-37.91253 2.35029,-12.32 5.83414,-30.36426 7.74189,-40.09836 5.2057,-26.5615 7.09409,-42.17584 10.41791,-86.14163 0.81286,-10.75207 0.92583,-14.88 0.40721,-14.88 -1.12947,0 -21.20891,23.00342 -30.13657,34.52508 -7.71393,9.95527 -8.27229,10.51966 -12.14358,12.27499 -2.23183,1.01196 -4.61062,1.83993 -5.28622,1.83993 -1.43886,0 -1.81908,-1.82991 -3.92285,-18.88 -2.2071,-17.88751 -4.1049,-23.7638 -11.18033,-34.61847 -1.94511,-2.98407 -3.53657,-6.12905 -3.53657,-6.98884 0,-1.55102 11.07674,-14.031714 30.1717,-33.995931 15.50626,-16.212146 29.15279,-27.928865 45.46849,-39.038596 12.11994,-8.252751 30.70449,-15.244038 45.95981,-17.289528 11.51916,-1.544532 17.34595,-0.52225 19.11165,3.353043 2.05675,4.514076 6.92937,42.93439 9.32644,73.538319 3.0182,38.534223 3.18632,43.200003 1.55664,43.200003 -0.30621,0 -8.83629,-3.91501 -18.95573,-8.70002 -10.11945,-4.78501 -18.76107,-8.84862 -19.2036,-9.03024 -0.63838,-0.262 -0.79445,4.74144 -0.75552,24.22002 0.0413,20.65843 -0.21064,27.94899 -1.58925,45.99023 -0.90107,11.792 -1.95089,25.616 -2.33291,30.72 -0.38203,5.104 -2.11558,23.104 -3.85233,40 -2.92568,28.46241 -4.11797,41.8374 -6.64657,74.56 -0.5304,6.864 -1.39818,17.376 -1.92838,23.36 -0.63946,7.21702 -0.9651,18.67876 -0.96723,34.04431 -0.003,23.12177 -0.006,23.16723 -1.44321,24.75619 -1.90173,2.10231 -14.93681,7.6645 -24.16,10.30929 -6.64501,1.90549 -26.9917,6.91648 -36.8,9.06312 -4.71105,1.03105 -9.84203,1.01683 -14.08,-0.039 z m 20.99466,-3.32536 c 29.10709,-6.918 34.10711,-8.37125 45.07186,-13.10008 9.76732,-4.21239 8.81036,-0.93958 8.83228,-30.20664 0.0143,-19.03554 0.28101,-27.57648 1.10382,-35.34181 0.59677,-5.632 1.66763,-18.16 2.37969,-27.84 1.74537,-23.72721 2.78389,-35.19323 6.08655,-67.2 1.54366,-14.96 3.12461,-31.232 3.51321,-36.16 0.3886,-4.928 1.45013,-18.32 2.35896,-29.76 1.29821,-16.34132 1.71882,-26.73346 1.96219,-48.47999 0.2433,-21.74035 0.48363,-27.68 1.11998,-27.68 0.6727,0 36.29407,16.48585 38.29973,17.72542 0.673,0.41593 0.42078,-6.67632 -0.82385,-23.16542 -3.4172,-45.271976 -8.28302,-86.325317 -10.78437,-90.988746 -1.21664,-2.26827 -4.68247,-2.99956 -12.07288,-2.547374 -11.17819,0.683943 -20.68828,3.243881 -35.89286,9.66168 -8.32651,3.514593 -13.51869,6.873212 -29.26897,18.932992 -9.03988,6.921708 -14.22528,11.554948 -24.08583,21.521075 -10.99622,11.113951 -31.96036,33.434373 -35.32899,37.614603 -1.16344,1.44375 -1.14409,1.50371 1.99787,6.19182 4.37459,6.52732 7.57355,13.09931 9.067,18.62739 0.93447,3.45903 5.14995,31.84968 5.14995,34.68424 0,0.73163 1.38063,0.3722 4.81955,-1.25466 3.0954,-1.46436 4.33401,-2.76345 11.74641,-12.32 10.26813,-13.23834 29.25071,-34.68642 30.68746,-34.67323 2.9388,0.027 2.93789,0.0146 1.43802,19.60519 -3.26359,42.62756 -4.84665,56.01452 -9.33557,78.94501 -1.55043,7.92 -5.00397,25.92 -7.67453,40 -5.36899,28.30699 -5.26902,27.86808 -10.56839,46.4 -2.06348,7.216 -5.22759,18.736 -7.03134,25.6 -4.63301,17.63037 -23.09952,73.3322 -26.45709,79.8044 -1.99543,3.84646 -7.28919,9.52993 -11.1929,12.01687 -2.14598,1.36714 -4.06199,2.90324 -4.25782,3.41354 -0.51127,1.33236 1.32515,2.45173 5.93108,3.61525 2.21368,0.55921 6.53368,2.06413 9.6,3.34428 14.88106,6.21264 18.70836,6.55588 33.60978,3.01419 z M 372.8,421.32095 c -0.704,-0.1598 -3.6105,-0.98578 -6.45889,-1.83549 -2.84839,-0.84972 -10.91239,-2.56089 -17.92,-3.80262 -7.00761,-1.24172 -14.11534,-2.71156 -15.79495,-3.2663 -3.98175,-1.31509 -7.01875,-4.27744 -8.4646,-8.25655 -2.01001,-5.5317 -1.79666,-5.45305 -12.80156,-4.71934 -22.32724,1.4886 -28.73526,-0.76794 -55.04,-19.38197 -6.336,-4.48354 -15.20721,-10.39892 -19.7138,-13.14529 -15.49337,-9.44185 -19.3827,-13.20632 -20.96934,-20.2962 -0.69273,-3.09545 -0.59322,-4.30466 0.96077,-11.67515 0.95344,-4.52213 2.26789,-11.24605 2.921,-14.94205 1.14804,-6.49689 10.06174,-64.15534 11.52659,-74.56 1.60691,-11.4136 5.44471,-33.53392 10.54862,-60.8 2.96507,-15.83999 5.82777,-31.75148 6.36156,-35.35886 1.578,-10.66394 3.22791,-12.59301 10.41423,-12.17626 2.39271,0.13875 6.79837,0.8744 9.79037,1.63475 8.94739,2.2738 31.82067,6.49003 39.36,7.25524 11.50052,1.16726 22.73443,-0.0185 31.66858,-3.34263 9.07157,-3.37528 21.40953,-11.0904 33.45981,-20.92292 5.91005,-4.82236 8.15224,-5.95272 12.60961,-6.3569 5.53698,-0.50207 6.20491,0.37378 10.85011,14.22759 5.56887,16.60857 6.10946,21.21722 6.00566,51.19999 -0.0863,24.91794 -1.87944,58.29045 -3.27189,60.89227 -1.12169,2.09589 -8.44061,4.68701 -16.06631,5.68796 -3.70072,0.48576 -11.8876,1.24298 -18.19307,1.68272 -10.14098,0.70722 -12.31479,0.67595 -18.83001,-0.27083 -4.78089,-0.69474 -7.78434,-1.44935 -8.55901,-2.15042 -1.37436,-1.24378 -1.55318,-4.73272 -0.55362,-10.8017 1.08104,-6.5637 3.16676,-26.07436 3.60196,-33.69417 l 0.41511,-7.268 -2.41176,-2.34253 c -3.84026,-3.73004 -8.26849,-5.86842 -11.0658,-5.34363 -4.54168,0.85202 -9.05492,4.1203 -10.9491,7.92884 -0.63449,1.27572 -1.48095,5.05549 -1.88101,8.39949 -1.01677,8.49881 -5.96315,33.03534 -9.80546,48.64 -5.89785,23.95269 -9.69771,35.38414 -23.37868,70.33201 -3.36138,8.5866 -6.25505,16.68145 -6.43036,17.98854 -0.55217,4.1167 1.42984,9.34657 4.82294,12.72612 7.62599,7.59554 18.13459,8.36238 24.65125,1.79885 2.32861,-2.34536 3.59412,-4.96442 9.87105,-20.42878 3.96,-9.75619 7.2,-18.48606 7.2,-19.39971 0,-2.77174 -1.10509,-3.97971 -4.95738,-5.41894 -4.36966,-1.63251 -7.83678,-4.11704 -7.85751,-5.63066 -0.008,-0.59808 2.21299,-9.00743 4.93595,-18.68743 5.2424,-18.63652 6.10007,-20.48 9.5283,-20.48 0.93915,0 6.64024,1.28635 12.66909,2.85856 13.86273,3.61513 28.239,6.48316 36.88155,7.35779 13.10694,1.32641 18.26168,2.02191 20.00814,2.69959 2.11368,0.82018 2.70693,2.71047 2.13708,6.80944 -0.22898,1.64704 -1.57367,11.92262 -2.98821,22.83462 -1.41453,10.912 -2.98431,22.432 -3.48841,25.6 -2.27008,14.26646 -4.8644,41.66755 -5.7565,60.8 -0.52521,11.264 -1.2588,21.5765 -1.6302,22.91668 -1.17866,4.25316 -3.41968,5.51535 -7.9619,4.48428 z m 5.94822,-3.55694 c 0.51254,-1.0743 1.07337,-6.416 1.44467,-13.76 1.71601,-33.94157 2.8377,-46.09687 7.01364,-76.00402 4.57422,-32.75945 6.24506,-46.74984 5.70455,-47.76552 -0.67395,-1.26642 -1.99056,-1.51687 -14.67108,-2.79073 -15.29439,-1.53645 -28.60263,-4.06429 -45.29068,-8.60274 -8.80407,-2.39435 -11.29757,-2.4978 -12.55791,-0.52101 -1.02309,1.60467 -9.99141,33.00025 -9.99141,34.97712 0,1.59469 2.62058,3.4646 7.3191,5.22254 3.05052,1.14135 3.84458,1.76296 4.61867,3.61562 0.57631,1.3793 0.77177,3.00958 0.50967,4.25102 -0.5587,2.64632 -12.73148,32.49957 -14.84896,36.41647 -5.51312,10.19813 -20.43463,10.95477 -29.87452,1.51487 -3.22934,-3.22933 -4.84396,-7.43337 -4.84396,-12.61235 0,-3.09529 0.85832,-5.84519 5.50776,-17.64599 13.80892,-35.04859 18.26192,-48.4275 24.25029,-72.8593 3.98848,-16.27249 8.94711,-40.96367 9.8782,-49.18787 0.94061,-8.30841 3.91588,-12.699 10.45764,-15.43232 5.28781,-2.20939 10.22194,-0.74121 15.89911,4.73085 l 3.20664,3.09079 -0.40232,5.67928 c -0.61768,8.71957 -2.13479,23.19295 -3.57114,34.0691 -1.2002,9.08787 -1.21959,9.91666 -0.25701,10.9803 2.54941,2.81707 22.61556,3.27266 41.83802,0.9499 8.28661,-1.00132 15.74181,-3.16755 17.25925,-5.01496 1.34831,-1.6415 2.95257,-34.26922 2.96314,-60.26507 0.0109,-26.66405 -0.39414,-32.50123 -2.89874,-41.77995 -1.80285,-6.67892 -7.02173,-20.85539 -7.8819,-21.41025 -1.04637,-0.67495 -6.4414,-0.59785 -8.32687,0.119 -0.88069,0.33484 -4.71543,3.09395 -8.52166,6.13135 -14.66474,11.7026 -27.87859,19.32928 -38.37373,22.14828 -6.18443,1.66114 -22.29696,2.33734 -30.38091,1.27501 -8.15709,-1.07195 -32.14911,-5.70932 -38.67829,-7.47604 -12.05145,-3.26099 -14.0191,-1.9104 -15.89828,10.91261 -0.56744,3.872 -3.45546,19.99999 -6.41783,35.83999 -5.88958,31.49208 -7.77543,42.90033 -16.37195,99.04065 -3.16669,20.68036 -6.62202,41.48624 -7.67852,46.2353 -2.3895,10.74105 -2.43408,13.7629 -0.2672,18.11126 2.2046,4.42408 5.63706,7.31187 16.8179,14.14919 5.15262,3.15095 15.2724,9.91219 22.4884,15.025 12.86883,9.11805 21.83001,14.3947 29.23788,17.21627 3.47786,1.32467 4.76,1.41786 19.53749,1.42002 17.79735,0.003 16.77987,-0.27545 18.74434,5.12231 2.2571,6.20185 6.06441,8.37709 17.92029,10.23843 9.44567,1.48294 21.22924,3.97643 25.6,5.41715 2.112,0.69617 4.98985,1.20247 6.39522,1.12509 2.08701,-0.11489 2.70873,-0.46243 3.393,-1.89665 z m 117.6175,-5.96974 c -0.55315,-0.55314 -1.00572,-1.50642 -1.00572,-2.1184 0,-0.61197 1.42808,-5.56427 3.17351,-11.00509 1.74543,-5.44083 6.77596,-24.43155 11.17894,-42.2016 4.40299,-17.77005 10.05215,-39.94119 12.5537,-49.26919 5.9833,-22.3111 8.06714,-31.01655 13.02184,-54.4 8.55176,-40.35968 12.21083,-60.10347 14.47036,-78.08 0.73003,-5.80799 2.07156,-15.02399 2.98118,-20.47999 1.57639,-9.45542 1.63555,-10.68432 1.2631,-26.24 -0.42929,-17.92963 -1.64889,-36.964022 -3.62911,-56.640002 -1.6578,-16.472296 -1.24395,-14.293518 -6.84163,-36.018519 -2.6555,-10.306186 -4.68051,-18.886191 -4.50002,-19.066678 0.18048,-0.180487 2.45215,-0.958015 5.04814,-1.72784 4.18069,-1.239754 6.21907,-1.400156 17.83999,-1.403845 l 13.12,-0.0042 29.76,4.949259 c 16.368,2.722092 31.43183,5.394942 33.47519,5.939668 8.16769,2.177385 20.39585,8.460922 29.30094,15.056575 4.46912,3.310081 9.39571,9.685665 19.38701,25.089163 11.40268,17.57936 14.65702,25.182892 14.71737,34.38638 0.0563,8.591119 -1.72896,11.104029 -12.93702,18.209259 -3.24077,2.05443 -5.81376,3.80137 -5.71789,3.8821 0.0959,0.0807 6.3632,2.07718 13.9273,4.43654 16.70451,5.21044 23.34252,8.43584 29.16172,14.16974 3.47514,3.42422 4.72487,5.33294 8.21703,12.55038 8.65433,17.88633 15.03481,36.31957 17.2688,49.89009 1.49702,9.09352 1.55264,10.15412 0.74989,14.30189 -2.17402,11.23278 -5.82464,18.6325 -12.48884,25.31431 -9.71308,9.73884 -31.35027,25.8301 -41.84934,31.12279 -2.51469,1.26768 -9.55603,4.56581 -15.64749,7.32919 -12.30797,5.58351 -39.81145,19.76269 -52.70892,27.1736 -21.5975,12.40998 -33.67623,21.07024 -55.08239,39.4932 -12.94953,11.14487 -63.25047,55.66816 -69.737,61.7269 -5.06017,4.72645 -6.68245,5.42248 -8.47064,3.63429 z m 9.46329,-6.87839 c 20.97367,-19.27123 76.49011,-67.7295 86.49099,-75.49481 8.83347,-6.85888 26.26615,-18.19428 39.04,-25.3853 11.85165,-6.67187 44.14317,-23.01878 58.87674,-29.80508 4.57414,-2.10688 10.5863,-5.20893 13.36032,-6.89342 10.24768,-6.22285 33.41612,-24.47024 37.77868,-29.75432 3.58036,-4.3367 7.28775,-12.63353 8.81562,-19.72866 l 1.31802,-6.12049 -1.39309,-9.0669 c -2.66138,-17.32159 -16.05075,-51.83186 -23.4752,-60.5056 -3.26784,-3.81775 -10.36557,-8.63797 -15.80647,-10.73456 -2.52704,-0.97376 -10.35462,-3.54031 -17.39462,-5.70344 -8.11859,-2.49455 -12.85626,-4.26037 -12.95386,-4.82814 -0.0897,-0.52154 2.58157,-2.62766 6.4,-5.04611 11.75591,-7.44571 13.7017,-10.22007 13.13127,-18.722813 C 699.40742,88.033783 696.17914,81.32145 682.50976,60.723883 671.93107,44.783517 670.54746,43.137042 663.92813,38.612889 648.6809,28.191802 642.55283,26.0527 614.88928,21.49516 603.18018,19.566097 588.848,17.192712 583.04,16.220971 c -13.09162,-2.190368 -28.01705,-2.46501 -35.84,-0.65949 -2.64,0.609307 -5.18097,1.347191 -5.6466,1.639743 -0.67307,0.422894 0.0895,4.107348 3.72082,17.976693 2.51208,9.594629 4.96108,20.508673 5.44223,24.25343 2.00872,15.633668 3.83474,39.542781 4.8458,63.448653 0.75127,17.76355 0.65702,20.04206 -1.32365,32 -0.6705,4.048 -1.96364,13.07104 -2.87365,20.0512 -3.95714,30.35302 -16.74471,92.86633 -25.94377,126.82879 -2.47891,9.152 -8.40254,32.336 -13.16363,51.52 -4.76108,19.184 -9.93674,38.87369 -11.50145,43.75488 -3.56774,11.12975 -4.06372,13.84512 -2.52888,13.84512 0.61094,0 4.03175,-2.68385 7.60179,-5.96411 z M 618.89754,246.87999 c 0.0306,-9.2145 3.66307,-84.82432 4.10986,-85.54725 0.2727,-0.44124 3.54223,-0.69274 9.00544,-0.69274 11.39433,0 11.19836,-0.2046 13.57762,14.17475 0.85255,5.15274 1.09799,10.67921 1.10407,24.86524 0.007,16.68961 -0.11904,18.8384 -1.4857,25.28 -1.83136,8.63175 -2.52563,10.35152 -5.51444,13.6598 -3.34485,3.70235 -17.97979,13.5402 -20.14261,13.5402 -0.41617,0 -0.6651,-2.00899 -0.65424,-5.28 z M 628.8,244.9499 c 6.39605,-4.28375 10.05236,-7.50132 11.80666,-10.38991 3.5694,-5.87726 5.86681,-28.97959 4.60121,-46.26906 -0.80256,-10.96381 -2.23296,-20.29908 -3.61849,-23.61508 L 640.70534,162.56 H 632.35266 624 l -10e-4,2.08 c -10e-4,2.98132 -3.07243,71.19534 -3.56092,79.09757 l -0.40907,6.61758 1.50551,-0.77374 c 0.82803,-0.42556 4.09751,-2.50974 7.26551,-4.63151 z M 618.56724,113.13572 C 617.97593,111.44124 608,59.691933 608,58.319056 c 0,-1.343788 0.19816,-1.411684 3.04,-1.041638 7.33114,0.954614 9.05428,1.625074 11.28077,4.389239 6.40883,7.956528 10.6054,21.410281 11.71554,37.558786 0.55482,8.070627 -0.78569,10.153777 -8.15054,12.665967 -5.62231,1.91781 -7.00167,2.15232 -7.31853,1.24431 z m 9.59276,-3.84379 c 2.38671,-1.21552 4.13905,-3.24939 4.50973,-5.23429 0.46754,-2.50347 -1.83393,-18.365841 -3.58336,-24.697642 -1.77136,-6.411149 -5.1121,-13.234893 -8.09244,-16.529478 -2.01095,-2.222974 -3.03303,-2.80004 -5.88128,-3.32054 -1.89605,-0.34649 -3.93872,-0.629982 -4.53929,-0.629982 -0.96119,0 -0.45718,3.160673 4.20985,26.399999 2.91598,14.52 5.31866,26.456473 5.33929,26.525503 0.0694,0.23236 6.74486,-1.85526 8.0375,-2.51357 z M 114.2358,363.25657 c -2.11432,-0.81448 -5.57032,-2.35021 -7.68,-3.41275 -4.54705,-2.2901 -19.720952,-7.88343 -27.27973,-10.05571 -2.945836,-0.84658 -8.95607,-2.28909 -13.35607,-3.20555 -12.563406,-2.6168 -15.198799,-3.48622 -16.978422,-5.60118 -2.215813,-2.63335 -2.047354,-4.84666 1.301312,-17.09744 1.882823,-6.88814 3.328583,-14.0639 4.190746,-20.8 0.723942,-5.65617 1.568559,-11.43595 1.876927,-12.84395 1.28139,-5.8508 3.239531,-24.75413 4.176629,-40.32 1.356114,-22.52601 3.136242,-34.24663 7.775195,-51.19301 2.314394,-8.45461 5.184435,-15.02818 8.780128,-20.1101 3.344435,-4.72679 32.359085,-30.89543 39.621645,-35.73521 9.75148,-6.49839 19.16817,-11.04167 22.88566,-11.04167 2.70013,0 3.08473,0.18375 3.68386,1.76 0.36794,0.968 0.8209,7.664 1.00658,14.88 0.4125,16.03088 2.21082,31.49485 5.58197,47.99999 3.30665,16.18938 5.41357,23.9424 5.91337,21.76 0.20154,-0.88 1.11806,-8.224 2.03673,-16.32 1.40042,-12.34169 3.85196,-26.57982 9.69726,-56.31999 1.32126,-6.72244 4.82375,-17.39531 6.03829,-18.4 1.20051,-0.9931 2.95944,-1.11857 15.52302,-1.10736 7.793,0.007 18.2011,0.4259 23.1291,0.93099 9.11626,0.93435 29.00166,5.31027 30.75899,6.76872 2.0076,1.66617 0.63247,11.56889 -6.36065,45.80487 -1.94999,9.54647 -4.01558,20.34647 -4.59021,24 -0.57463,3.65353 -2.30549,13.37882 -3.84634,21.61178 -1.54085,8.23295 -3.26591,18.88894 -3.83346,23.68 -0.56755,4.79104 -1.7216,12.59899 -2.56454,17.35099 -0.84295,4.752 -1.96252,11.52 -2.48794,15.04 -3.48484,23.34666 -4.4911,28.96012 -7.0736,39.46037 -1.58802,6.4568 -3.43401,14.7469 -4.10221,18.42246 -0.84789,4.66409 -1.56074,6.93572 -2.35978,7.52 -2.39377,1.75036 -5.65099,0.98628 -13.94302,-3.27076 -9.9613,-5.11403 -15.23227,-6.42805 -23.99602,-5.98209 -6.79659,0.34587 -13.11786,2.15177 -20.88689,5.96712 -4.69381,2.30512 -7.99003,2.79038 -9.18376,1.35203 -0.38839,-0.46798 -2.74115,-8.60398 -5.22834,-18.08 -5.95394,-22.68399 -9.17006,-33.52181 -9.48219,-31.95341 -0.31583,1.58706 1.00116,25.28135 1.8856,33.92428 0.36021,3.52 1.35568,10 2.21216,14.4 1.85452,9.52716 1.90676,11.65966 0.36861,15.04549 -1.52517,3.35727 -5.36809,6.72392 -7.62868,6.68323 -0.95575,-0.0172 -3.46762,-0.69767 -5.58193,-1.51214 z m 8.60952,-2.04561 c 4.02327,-3.38536 4.7526,-6.59259 3.21437,-14.13516 -2.59678,-12.73302 -3.67384,-24.07031 -4.85736,-51.12914 -0.38023,-8.6932 -0.31779,-9.65334 0.62772,-9.65334 0.57748,0 1.04995,0.10461 1.04995,0.23247 0,0.12785 1.30445,4.43406 2.89879,9.56935 1.59433,5.13529 5.02691,17.48586 7.62796,27.44571 4.73181,18.11892 5.60199,20.77914 6.79705,20.77914 0.35131,0 2.05207,-0.71618 3.77945,-1.59151 10.34533,-5.24238 20.32458,-7.75529 28.47254,-7.16979 6.65219,0.47802 12.49268,2.30668 20.82421,6.52006 8.16922,4.13131 8.58469,4.27225 10.47505,3.55354 1.30584,-0.49648 1.64517,-1.35816 2.57622,-6.54205 0.58976,-3.28364 2.49687,-11.87425 4.23802,-19.09025 1.74115,-7.216 3.72764,-17.008 4.41442,-21.76 2.61848,-18.11782 4.5448,-30.29515 5.14824,-32.54486 0.34449,-1.28433 1.23393,-7.37514 1.97653,-13.53514 0.7426,-6.16 2.61211,-17.968 4.15448,-26.24 1.54236,-8.272 3.38799,-18.68123 4.10139,-23.13162 0.71341,-4.4504 2.89445,-15.8264 4.84675,-25.28 3.24311,-15.70406 7.3489,-38.12071 7.3489,-40.12324 0,-2.15448 -1.94596,-3.01173 -12.50084,-5.50692 -12.82102,-3.0309 -26.89762,-4.49828 -43.26826,-4.51035 -9.22626,-0.007 -10.82318,0.14178 -11.95196,1.11214 -0.82994,0.71345 -2.00965,3.67545 -3.24999,8.16 -2.67941,9.68761 -10.04818,47.45217 -11.23914,57.59999 -0.53704,4.576 -1.62153,14.008 -2.40998,20.96 -0.94848,8.36317 -1.68549,12.64 -2.1782,12.64 -0.89214,0 -1.52163,-1.46364 -1.52163,-3.53798 0,-0.83231 -0.99799,-5.37348 -2.21776,-10.09148 -6.18266,-23.91425 -9.89302,-52.63714 -9.66618,-74.82851 0.0335,-3.27709 -0.22127,-4.56298 -1.07262,-5.4137 -1.06178,-1.06098 -1.29636,-1.05462 -4.7808,0.12978 -4.76834,1.62081 -16.21351,8.17047 -22.456,12.85077 -2.70965,2.03155 -11.35786,9.59314 -19.218237,16.80353 -18.492461,16.96327 -20.580025,19.96973 -25.043117,36.06652 -4.482496,16.1668 -6.490576,29.39993 -7.699763,50.74107 -0.868795,15.33351 -2.177818,28.05946 -4.147415,40.32 -0.848207,5.28 -1.860751,12.336 -2.250097,15.68 -0.707479,6.07636 -1.945787,11.59836 -4.859857,21.6716 -1.995283,6.89721 -2.025789,10.30361 -0.108154,12.07683 1.431969,1.32413 8.868835,3.38025 20.32,5.61801 7.529997,1.47151 26.67751,7.92479 35.69724,12.03104 4.12652,1.8786 8.22276,3.7352 9.10276,4.12576 2.65252,1.17726 4.90255,0.8971 7.00532,-0.87227 z"
     id="path821"
     inkscape:connector-curvature="0" />
  <path
     style="fill:#000000;stroke-width:0.63999999"
     d=""
     id="path819"
     inkscape:connector-curvature="0" />
</svg>
