<?xml version="1.0" encoding="UTF-8" standalone="no"?>
<!-- Created with Inkscape (http://www.inkscape.org/) -->

<svg
   xmlns:dc="http://purl.org/dc/elements/1.1/"
   xmlns:cc="http://creativecommons.org/ns#"
   xmlns:rdf="http://www.w3.org/1999/02/22-rdf-syntax-ns#"
   xmlns:svg="http://www.w3.org/2000/svg"
   xmlns="http://www.w3.org/2000/svg"
   xmlns:sodipodi="http://sodipodi.sourceforge.net/DTD/sodipodi-0.dtd"
   xmlns:inkscape="http://www.inkscape.org/namespaces/inkscape"
   width="121.32733mm"
   height="155.87134mm"
   viewBox="0 0 121.32733 155.87134"
   version="1.1"
   id="svg8"
   inkscape:version="0.92.5 (2060ec1f9f, 2020-04-08)"
   sodipodi:docname="PiLogo.svg">
  <defs
     id="defs2" />
  <sodipodi:namedview
     id="base"
     pagecolor="#ffffff"
     bordercolor="#666666"
     borderopacity="1.0"
     inkscape:pageopacity="0.0"
     inkscape:pageshadow="2"
     inkscape:zoom="0.7"
     inkscape:cx="320.79101"
     inkscape:cy="307.16405"
     inkscape:document-units="mm"
     inkscape:current-layer="layer1"
     showgrid="false"
     inkscape:window-width="1366"
     inkscape:window-height="703"
     inkscape:window-x="1920"
     inkscape:window-y="0"
     inkscape:window-maximized="1"
     fit-margin-top="0"
     fit-margin-left="0"
     fit-margin-right="0"
     fit-margin-bottom="0" />
  <metadata
     id="metadata5">
    <rdf:RDF>
      <cc:Work
         rdf:about="">
        <dc:format>image/svg+xml</dc:format>
        <dc:type
           rdf:resource="http://purl.org/dc/dcmitype/StillImage" />
        <dc:title></dc:title>
      </cc:Work>
    </rdf:RDF>
  </metadata>
  <g
     inkscape:label="Layer 1"
     inkscape:groupmode="layer"
     id="layer1"
     transform="translate(-35.342278,-22.516712)">
    <path
       style="fill:#000000;stroke-width:0.08466667"
       d="m 94.097919,177.87885 c -3.485988,-0.36082 -7.242918,-1.57798 -10.329328,-3.34648 -2.09562,-1.20078 -4.84271,-3.35339 -6.08449,-4.7678 -0.43827,-0.49921 -0.54045,-0.5667 -1.30189,-0.85989 -4.73093,-1.82166 -9.45528,-4.44263 -13.46771,-7.47158 -0.86478,-0.65282 -1.26627,-0.89035 -2.16859,-1.28299 -2.61825,-1.13931 -5.47424,-3.10068 -7.71213,-5.29637 -2.43803,-2.39206 -4.73195,-5.80184 -5.92377,-8.80534 -0.81427,-2.05204 -1.356,-3.91046 -1.65357,-5.67266 -0.14632,-0.86652 -0.28213,-1.33482 -0.6384,-2.20134 -1.06929,-2.60069 -1.81436,-4.8593 -2.53053,-7.67101 -0.43957,-1.72578 -0.44881,-1.74976 -0.86722,-2.25254 -1.81104,-2.17619 -3.39973,-5.03539 -4.38889,-7.89878 -1.44784,-4.19121 -1.67934,-9.16584 -0.63238,-13.589 0.77377,-3.26896 2.37732,-6.62862 4.43653,-9.295146 1.38918,-1.79888 3.53084,-3.87932 5.1116,-4.96548 0.19819,-0.13618 0.41194,-0.45734 0.74083,-1.11315 l 0.46227,-0.92173 v -1.33977 c 0,-1.92431 0.32335,-4.38331 0.84913,-6.45744 0.39567,-1.56087 1.36173,-3.98934 2.23354,-5.61466 1.9695,-3.67175 5.2846,-7.24577 8.72263,-9.40393 l 0.2483,-0.15586 -0.71397,-0.34644 c -0.9598,-0.46572 -1.8552,-1.34097 -2.32863,-2.27624 l -0.33266,-0.65718 -1.02553,-0.49655 c -1.89568,-0.91787 -2.90359,-1.76053 -3.52872,-2.95014 -0.17344,-0.33007 -0.37496,-0.86071 -0.4478,-1.1792 -0.13061,-0.57101 -0.1399,-0.58413 -0.66664,-0.94133 -0.75619,-0.5128 -2.06123,-1.63874 -2.45013,-2.11388 -0.63453,-0.77524 -1.1466,-2.16097 -1.15071,-3.11399 -10e-4,-0.3112 -0.057,-0.39574 -0.64053,-0.97367 -0.81268,-0.80482 -1.33563,-1.56805 -1.6242,-2.37046 -0.19954,-0.55484 -0.22838,-0.76439 -0.23338,-1.69544 l -0.006,-1.06235 -0.60032,-0.80031 c -0.33017,-0.44018 -0.70309,-1.004 -0.8287,-1.25294 -0.4972,-0.98534 -0.66613,-2.25787 -0.44008,-3.31505 l 0.0996,-0.46566 -0.43945,-0.84667 c -0.52782,-1.01693 -0.693,-1.550796 -0.75886,-2.452657 -0.065,-0.889922 0.1149,-1.741608 0.55744,-2.63929 l 0.3398,-0.68928 -0.13822,-0.32672 c -0.38825,-0.917724 -0.49326,-2.395803 -0.23944,-3.370293 0.41004,-1.574221 1.66616,-2.92159 3.25918,-3.495916 0.56195,-0.2026 0.75676,-0.228653 1.73375,-0.231864 l 1.10067,-0.0036 0.56085,-0.554598 c 0.68841,-0.680732 1.4972,-1.120675 2.55161,-1.387945 0.87948,-0.22293 2.28097,-0.384154 3.3394,-0.384154 0.69517,0 0.71474,-0.0058 1.12757,-0.332086 0.99176,-0.783935 1.82407,-1.037897 3.48286,-1.062708 l 1.24097,-0.01856 0.41003,-0.29869 c 0.58886,-0.428951 1.05465,-0.646351 1.7851,-0.83317 1.02311,-0.261667 2.15009,-0.186177 3.92529,0.262935 l 0.64369,0.162847 0.46802,-0.25349 c 0.62508,-0.338557 1.64713,-0.590409 2.39596,-0.590409 0.78756,0 1.96659,0.300404 3.00298,0.765121 0.89701,0.402219 0.99659,0.413937 1.778,0.209217 0.88085,-0.230772 2.21787,-0.145788 3.09033,0.196428 0.37254,0.146124 0.94404,0.422201 1.27,0.613506 l 0.59267,0.347828 0.61186,-0.104023 c 0.90154,-0.153271 2.0485,-0.06758 2.76753,0.206766 0.76107,0.290389 1.74301,0.955924 2.81772,1.909776 l 0.8631,0.766048 h 0.55089 c 0.7816,0 1.34766,0.136107 2.12557,0.511089 1.66531,0.802745 4.505166,3.995835 6.286683,7.068645 0.39069,0.673874 1.433644,2.76714 1.665258,3.342266 l 0.153435,0.381 0.134604,-0.296333 c 1.065746,-2.346263 1.747534,-3.59833 2.789259,-5.122334 1.15909,-1.695685 2.39324,-3.128148 3.69002,-4.282931 1.28328,-1.142772 2.3168,-1.597288 3.63857,-1.600151 l 0.57783,-0.0013 0.67147,-0.609255 c 1.42719,-1.294955 2.48079,-1.964151 3.50349,-2.225248 0.59042,-0.150735 1.71662,-0.168168 2.33242,-0.0361 0.43193,0.09263 0.43343,0.0922 1.46467,-0.422827 1.35768,-0.678063 1.86677,-0.802371 3.06268,-0.747832 0.55107,0.02513 1.09251,0.100036 1.32277,0.182996 l 0.38984,0.140448 0.75812,-0.33362 c 2.33379,-1.027 4.02514,-1.119388 5.5872,-0.305192 l 0.54612,0.284659 0.65178,-0.161955 c 2.61006,-0.648554 4.0828,-0.521748 5.54518,0.477452 l 0.57922,0.395765 1.24302,0.01665 c 1.60765,0.02153 2.37441,0.256075 3.44436,1.053617 l 0.42333,0.315553 1.31234,0.05729 c 1.91281,0.0835 3.3576,0.403844 4.3038,0.954242 0.21736,0.126432 0.66548,0.490841 0.99583,0.809797 l 0.60063,0.57992 0.71561,-0.05501 c 2.30743,-0.177363 4.48595,1.227201 5.23854,3.377461 0.36211,1.034611 0.3161,2.657151 -0.10312,3.636734 l -0.17141,0.400539 0.34036,0.700127 c 0.43863,0.902288 0.56175,1.44432 0.55325,2.435795 -0.008,0.964076 -0.26786,1.842024 -0.84306,2.851394 -0.33484,0.58757 -0.36146,0.6754 -0.28818,0.95114 0.26574,1.00008 0.14202,2.31474 -0.31148,3.30947 -0.13799,0.30268 -0.53323,0.92645 -0.87833,1.38615 l -0.62745,0.83582 -0.003,0.98451 c -0.006,1.66057 -0.42103,2.63724 -1.69067,3.97509 l -0.77766,0.81943 -0.10088,0.79274 c -0.10824,0.85069 -0.36003,1.57126 -0.77503,2.21798 -0.34683,0.54048 -1.40576,1.54047 -2.46996,2.33248 l -0.86921,0.64689 -0.1046,0.51862 c -0.0575,0.28524 -0.24332,0.7932 -0.41287,1.12879 -0.61067,1.20873 -1.66998,2.09905 -3.60397,3.02902 l -0.9749,0.46878 -0.33139,0.65535 c -0.72744,1.43854 -2.02816,2.34805 -4.34283,3.03663 -0.0661,0.0197 0.11735,0.1856 0.42333,0.38291 2.25018,1.45102 5.09714,4.39891 6.73374,6.97248 1.17513,1.84788 1.53582,2.54157 2.35525,4.52966 1.08885,2.64174 1.81508,6.36614 1.82522,9.36046 0.003,0.75241 0.005,0.76228 0.4445,1.55696 0.39717,0.71875 0.50352,0.84334 1.04994,1.23004 1.79948,1.27348 3.96539,3.39085 5.29231,5.17372 2.86319,3.847036 4.37978,7.783746 4.8573,12.608486 0.16908,1.70834 0.12667,3.4073 -0.13544,5.42504 -0.55493,4.27209 -2.32874,8.48612 -4.9858,11.84467 l -0.73863,0.93363 -0.23146,1.05833 c -0.31276,1.43002 -0.98641,3.88228 -1.40713,5.12233 -0.33016,0.97311 -0.34655,1.0714 -0.38812,2.32834 -0.25079,7.58294 -3.58349,14.59794 -9.26041,19.49226 -2.50647,2.16092 -5.96985,4.14008 -8.99271,5.1389 -0.59035,0.19506 -0.96905,0.38399 -1.35467,0.67581 -2.91458,2.2057 -7.26072,4.69899 -11.01345,6.31818 l -1.5882,0.68526 -0.9518,1.02628 c -3.99488,4.30751 -9.95221,7.33887 -15.76846,8.02369 -1.612226,0.18982 -4.568771,0.22904 -6.011335,0.0797 z m 5.132794,-6.0889 c 4.675597,-0.58328 9.051467,-2.81482 12.266207,-6.25534 1.10039,-1.17767 1.9385,-2.27407 2.17172,-2.84101 0.22117,-0.53764 0.26246,-1.34291 0.0971,-1.89469 -0.0687,-0.22943 -0.32192,-0.57234 -0.77944,-1.05568 -0.76549,-0.80869 -1.46093,-1.31675 -2.10745,-1.53962 -0.24216,-0.0835 -0.9356,-0.34261 -1.54097,-0.57585 -1.64934,-0.63545 -2.68014,-0.93362 -3.89734,-1.12734 -0.6039,-0.0961 -1.56089,-0.24875 -2.12665,-0.33921 -0.56576,-0.0905 -1.22457,-0.16447 -1.46402,-0.16447 -0.23945,0 -0.93861,-0.0617 -1.55368,-0.13716 -1.165767,-0.14299 -2.13535,-0.13505 -5.563311,0.0455 -1.670212,0.088 -2.336689,0.16536 -3.682998,0.42756 -0.46567,0.0907 -1.20862,0.2247 -1.651,0.2978 -1.09506,0.18095 -2.62368,0.59508 -3.34277,0.90562 -0.32683,0.14114 -0.89903,0.36157 -1.27156,0.48984 -1.32987,0.4579 -3.67252,2.10368 -4.14706,2.91343 -0.48165,0.82187 -0.5762,1.5803 -0.28432,2.28068 0.67865,1.62845 3.75307,4.50213 6.51206,6.08687 2.16572,1.24396 5.27779,2.25447 7.740648,2.51342 1.122552,0.11803 3.56367,0.102 4.624794,-0.0304 z M 72.344521,156.33087 c 0.18952,-0.0407 0.66577,-0.19629 1.05833,-0.34575 0.84362,-0.32117 1.41086,-0.81567 2.36186,-2.05896 0.49589,-0.6483 0.63383,-0.90217 0.81127,-1.4931 0.44367,-1.47755 0.55321,-4.13257 0.21989,-5.32984 -0.0967,-0.34732 -0.29304,-1.20298 -0.43633,-1.90148 -0.2903,-1.41516 -0.85958,-2.92594 -1.51041,-4.00839 -0.2056,-0.34196 -0.44777,-0.81637 -0.53816,-1.05426 -0.48373,-1.27307 -2.26828,-3.89359 -3.70189,-5.43602 -0.56266,-0.60537 -1.24918,-1.36737 -1.52561,-1.69333 -0.53797,-0.63438 -1.88781,-1.90843 -2.37522,-2.24188 -0.16298,-0.11151 -0.50588,-0.37901 -0.762,-0.59446 -0.65398,-0.55013 -0.80349,-0.64657 -2.34594,-1.51321 -2.2535,-1.26616 -3.64628,-1.68134 -5.87996,-1.75284 -1.36607,-0.0437 -1.54849,-0.0321 -2.11667,0.13491 -0.7323,0.21524 -1.60434,0.67909 -1.97666,1.0514 -0.14573,0.14573 -0.35945,0.33991 -0.47493,0.43152 -1.16797,0.92647 -2.0225,3.80727 -2.0225,6.81824 0,3.79933 0.83972,7.22475 2.5228,10.29105 1.54878,2.82163 3.53748,5.07664 6.10979,6.92796 1.43336,1.03159 2.42659,1.59429 3.98274,2.25632 2.00164,0.85156 4.10378,1.4077 6.05367,1.60155 0.73497,0.0731 1.99557,0.0288 2.54593,-0.0894 z m 52.323229,-0.0764 c 5.069,-0.71136 9.33963,-2.88284 12.74559,-6.48071 2.80239,-2.96031 4.74082,-7.0059 5.37522,-11.21834 0.1075,-0.7138 0.14758,-1.52727 0.15015,-3.048 0.003,-1.91085 -0.0149,-2.17368 -0.22969,-3.33492 -0.29866,-1.61438 -0.98242,-3.88752 -1.38811,-4.61473 -0.66797,-1.19737 -1.55086,-2.05919 -2.48423,-2.42499 -1.63457,-0.64057 -2.48036,-0.6886 -4.56442,-0.25914 -1.58921,0.32748 -1.74228,0.38581 -3.59953,1.37157 -1.0256,0.54437 -1.58726,0.90934 -2.3059,1.49843 -1.40349,1.15049 -2.42623,2.04259 -3.26981,2.85216 -0.69448,0.66648 -1.02675,1.03838 -2.49343,2.79074 -0.45999,0.54958 -2.54613,3.70093 -3.50986,5.30202 -0.29022,0.48215 -1.33147,2.81242 -1.33147,2.97976 0,0.042 -0.14948,0.4438 -0.33217,0.89279 -0.47344,1.16357 -1.0901,3.91855 -1.18804,5.30765 -0.0882,1.25146 0.17444,3.84097 0.47526,4.68519 0.394,1.10572 1.44683,2.51238 2.21528,2.95978 0.51268,0.29848 1.58381,0.70397 2.16168,0.81834 0.65421,0.12948 2.36217,0.0924 3.57348,-0.0776 z m -26.223312,-5.29718 c 4.643772,-0.5579 8.347852,-2.32022 11.320842,-5.38623 1.65054,-1.70217 2.4837,-3.00616 3.48172,-5.4493 0.67743,-1.65834 0.99049,-3.27338 0.99292,-5.12234 0.002,-1.47483 -0.1988,-3.10359 -0.52866,-4.2894 -0.24617,-0.88493 -0.92622,-2.43744 -1.32293,-3.02013 -0.19551,-0.28718 -0.49483,-0.78883 -0.66515,-1.1148 -0.4368,-0.83595 -1.91285,-2.52164 -2.82666,-3.22811 -0.40916,-0.31632 -0.91136,-0.71966 -1.116,-0.89629 -1.23999,-1.07031 -3.50485,-2.22041 -5.0466,-2.56269 -0.32596,-0.0724 -0.89746,-0.22583 -1.27,-0.34104 -0.37253,-0.11521 -1.20375,-0.30503 -1.847137,-0.42183 -4.312387,-0.78289 -9.902072,0.63892 -13.689192,3.48205 -1.88993,1.41882 -3.61011,3.36507 -4.44246,5.02624 -0.12833,0.25612 -0.36542,0.68523 -0.52688,0.95358 -0.16146,0.26835 -0.4759,0.99225 -0.69876,1.60867 -0.49708,1.37492 -0.73899,2.80299 -0.81374,4.80375 -0.044,1.17888 -0.0255,1.55564 0.11885,2.413 0.15148,0.8998 0.67683,2.67952 1.07469,3.64067 0.98885,2.38887 3.04112,4.9461 5.24596,6.5367 1.1092,0.80019 2.48432,1.54827 3.85938,2.09955 1.56528,0.62754 2.939808,0.98621 4.522621,1.18014 1.915897,0.23475 2.799486,0.25332 4.177186,0.0878 z M 48.998691,125.69326 c 0.51207,-0.2585 1.34772,-1.11035 1.55195,-1.58203 0.0585,-0.13502 0.24589,-0.41694 0.4165,-0.62649 0.44467,-0.54615 1.04766,-1.79663 1.31137,-2.71952 0.1248,-0.43678 0.2756,-0.88987 0.33511,-1.00688 0.43008,-0.84565 1.14813,-3.4266 1.34654,-4.83998 0.0681,-0.48486 0.15906,-0.9751 0.20221,-1.08943 0.0431,-0.11432 0.12369,-0.49361 0.17898,-0.84286 0.0553,-0.34925 0.15496,-0.9017 0.2215,-1.22767 0.38861,-1.90369 0.52825,-6.28857 0.29162,-9.15735 -0.23921,-2.899936 -0.82244,-4.881116 -1.64835,-5.599236 -0.11763,-0.10228 -0.21387,-0.22407 -0.21387,-0.27065 0,-0.0466 -0.15175,-0.19463 -0.33723,-0.32899 -0.29228,-0.21173 -0.39104,-0.23831 -0.74084,-0.1994 -0.54678,0.0608 -0.95098,0.24538 -1.801,0.82242 -2.82011,1.91443 -5.14334,4.590766 -6.49847,7.486166 -0.20498,0.43797 -0.53871,1.27617 -0.74163,1.86267 -0.72999,2.1099 -0.95954,3.36875 -1.02816,5.63837 -0.0418,1.38356 -0.0227,1.78639 0.13651,2.87867 0.36985,2.537 0.96244,4.34017 2.13676,6.50184 0.76507,1.40833 1.4556,2.38614 2.55351,3.61583 0.8616,0.96502 1.43637,1.1341 2.32699,0.68452 z m 96.028559,-0.31604 c 0.63464,-0.42295 2.28322,-2.39528 3.11204,-3.72315 2.8689,-4.59639 3.57827,-10.32746 1.90604,-15.399 -1.31004,-3.97308 -3.5961,-7.058486 -7.05811,-9.526016 -0.96937,-0.69092 -2.33837,-1.43831 -2.63454,-1.43831 -0.31424,0 -0.76116,0.16804 -0.98817,0.37156 -0.48295,0.43297 -0.99689,1.93704 -1.3485,3.94644 -0.21934,1.253526 -0.22946,1.437506 -0.22578,4.106326 0.004,2.73849 0.0101,2.84025 0.31825,5.12233 0.17292,1.28059 0.35295,2.51884 0.40008,2.75167 0.0471,0.23283 0.15685,0.82338 0.24382,1.31233 0.49523,2.78403 0.86722,4.34759 1.3194,5.54567 0.15818,0.4191 0.38865,1.1049 0.51216,1.524 0.28058,0.95203 0.79932,2.12471 1.21385,2.74406 0.17422,0.2603 0.44326,0.70187 0.59786,0.98127 0.3607,0.65188 0.75742,1.09055 1.35075,1.4936 0.52911,0.35942 0.93373,0.41856 1.28085,0.18722 z m -69.217329,-3.75454 c 1.77412,-0.16066 3.18664,-0.52546 5.08,-1.31194 2.19291,-0.91093 4.64208,-2.65295 6.39823,-4.55086 3.27733,-3.54188 5.00746,-6.90844 5.626477,-10.94816 0.311559,-2.03325 0.397414,-3.14123 0.337564,-4.35632 -0.109115,-2.215266 -0.527557,-3.842406 -1.616781,-6.286946 -1.42066,-3.18837 -4.30516,-5.8152 -7.73982,-7.04842 -1.8722,-0.67221 -2.87902,-0.83968 -5.03767,-0.83792 -1.49934,10e-4 -1.92397,0.031 -2.70933,0.19003 -3.96138,0.80211 -7.28085,2.64807 -10.2474,5.69858 -1.53878,1.58233 -2.70043,3.19706 -3.61899,5.03053 -1.68231,3.357926 -2.31222,5.943626 -2.29842,9.434816 0.007,1.81501 0.12514,2.75211 0.55201,4.38497 1.4299,5.46959 5.71058,9.44452 11.23277,10.43047 1.40647,0.25111 2.60027,0.30167 4.04136,0.17117 z m 45.465999,-0.63011 c 1.15493,-0.13401 2.9473,-0.56715 3.51367,-0.84909 0.20955,-0.10432 0.66675,-0.29693 1.016,-0.42802 0.90145,-0.33837 1.93145,-1.00123 2.97869,-1.91695 2.48866,-2.17609 3.99238,-5.02227 4.64495,-8.79177 0.14952,-0.86371 0.18312,-1.39308 0.18268,-2.87867 -8.5e-4,-1.61121 -0.0262,-1.95651 -0.22434,-3.00567 -0.29102,-1.54136 -0.90341,-3.646506 -1.41303,-4.857476 -0.46552,-1.10616 -1.59892,-3.16468 -2.22027,-4.03252 -3.19855,-4.46745 -7.59731,-7.40669 -12.50001,-8.35247 -1.23222,-0.23771 -1.40537,-0.2508 -2.83634,-0.21444 -2.44016,0.062 -3.71939,0.36599 -5.75733,1.36817 -1.47531,0.72549 -2.03344,1.09988 -3.07905,2.06534 -0.75414,0.69634 -1.01908,1.01938 -1.8145,2.2124 -0.51229,0.76835 -1.06149,1.68063 -1.22047,2.02729 -0.48491,1.05741 -0.94116,2.49561 -1.16453,3.67086 -0.20276,1.06679 -0.4048,2.9387 -0.33885,3.139376 0.0171,0.0521 0.0718,0.83776 0.12153,1.74581 0.0911,1.66458 0.22866,2.48925 0.72365,4.33887 0.26943,1.00678 2.24657,5.11156 2.94658,6.11746 1.05546,1.51668 3.99849,4.47938 5.29171,5.32709 0.89193,0.58467 2.97219,1.72348 4.03726,2.21016 0.65743,0.30039 2.95356,0.84448 3.89467,0.92285 0.32597,0.0272 0.91652,0.10263 1.31233,0.16775 0.91781,0.15099 0.73284,0.14967 1.905,0.0136 z m 17.78943,-29.868736 c 0.12366,-0.23912 0.13506,-0.50945 0.0937,-2.2225 -0.042,-1.74073 -0.0757,-2.09125 -0.31351,-3.26259 -0.93068,-4.58359 -3.22265,-8.48255 -6.69,-11.38063 -0.77827,-0.65049 -2.41456,-1.74461 -3.39834,-2.27234 -1.34013,-0.71888 -3.73408,-1.55579 -5.36466,-1.87546 -2.31837,-0.45451 -5.53161,-0.40336 -7.93978,0.12637 -0.40872,0.0899 -0.81829,0.21042 -0.91017,0.2678 -0.46989,0.29345 0.10723,1.83866 1.11472,2.98459 0.2047,0.23283 0.52207,0.61383 0.70525,0.84666 0.18318,0.23284 0.64206,0.74719 1.01973,1.143 0.37767,0.39582 0.88327,0.94514 1.12356,1.22072 0.55873,0.64077 3.8357,3.811 5.4826,5.30401 1.40458,1.27335 2.49808,2.15514 3.55516,2.86686 0.38562,0.25965 1.15244,0.85525 1.70404,1.32356 1.0479,0.88969 2.2562,1.75824 3.11956,2.24242 0.2794,0.15669 0.90805,0.55828 1.397,0.89242 0.91575,0.62583 1.88627,1.15069 2.32316,1.2564 0.13687,0.0331 0.35256,0.13406 0.47932,0.22432 0.55672,0.39643 1.11869,0.58495 1.74617,0.5858 0.60341,8.5e-4 0.61356,-0.003 0.75244,-0.27141 z m -83.812359,-0.35283 c 0.36314,-0.15752 0.81266,-0.33421 0.99893,-0.39264 0.54321,-0.17039 1.28729,-0.56912 2.28633,-1.22517 0.51241,-0.3365 1.14106,-0.71784 1.397,-0.84741 0.81821,-0.41426 2.24834,-1.40935 3.89434,-2.70972 0.53551,-0.42307 1.50706,-1.18506 2.159,-1.69331 2.30379,-1.79607 3.14862,-2.53425 6.30766,-5.51146 1.99604,-1.88114 2.78209,-2.70447 3.556,-3.72462 0.25612,-0.3376 0.70826,-0.92527 1.00477,-1.30593 0.54433,-0.69882 1.19657,-2.02388 1.19657,-2.4309 0,-0.39028 -0.32871,-0.56326 -1.53802,-0.80936 -4.89598,-0.99635 -10.14288,0.004 -14.37932,2.74053 -3.10148,2.00366 -5.81491,5.18513 -7.21518,8.45973 -1.13469,2.65352 -1.67201,5.1698 -1.67234,7.83166 -8e-5,0.74507 0.0228,1.44046 0.0509,1.54532 0.032,0.11949 0.1501,0.21934 0.31635,0.26753 0.52402,0.15189 0.95763,0.10043 1.63698,-0.19425 z m 44.305928,-6.02335 c 0.832751,-0.0557 1.447781,-0.14977 2.455341,-0.37565 0.39581,-0.0887 1.11971,-0.22553 1.60866,-0.30398 1.19794,-0.19221 2.04165,-0.49891 3.87224,-1.40763 2.23934,-1.11163 2.5663,-1.34421 3.483,-2.47754 1.05956,-1.30995 1.53476,-2.28085 1.53476,-3.13573 0,-1.00859 -0.38692,-2.3702 -0.88277,-3.10654 -0.84692,-1.25768 -2.80495,-3.11819 -4.42096,-4.20076 -0.88275,-0.59135 -2.56493,-1.49509 -3.5016,-1.8812 -0.85331,-0.35174 -2.9313,-0.97508 -3.767671,-1.1302 -1.867919,-0.34643 -4.825739,-0.39583 -6.477,-0.10817 -3.920638,0.68299 -7.105748,2.20709 -10.059748,4.81366 -1.39958,1.23497 -2.13725,2.2876 -2.44215,3.48486 -0.32307,1.26864 -0.21218,2.3265 0.34165,3.25908 0.15544,0.26174 0.41191,0.70343 0.56993,0.98155 0.99582,1.75259 4.36556,3.70093 8.28011,4.78745 1.97753,0.54889 2.851096,0.67816 5.165477,0.76438 1.18338,0.0441 2.172704,0.10126 2.198496,0.12705 0.02579,0.0258 0.333922,0.0268 0.684732,0.002 0.35081,-0.0246 0.961686,-0.0664 1.357503,-0.0928 z M 72.211591,65.869794 c 3.04934,-0.46881 6.17183,-1.35608 8.06922,-2.29289 1.9499,-0.96274 3.45752,-2.36579 4.40574,-4.10017 0.34705,-0.63478 0.86088,-1.93101 0.94547,-2.38514 l 0.0579,-0.3108 -1.72267,-1.72661 c -2.36722,-2.37263 -4.95207,-4.54763 -8.29031,-6.97579 -4.95627,-3.60508 -11.16898,-7.42911 -16.14034,-9.934636 -0.92181,-0.464586 -1.64507,-0.845824 -1.60725,-0.847195 0.12932,-0.0047 2.46963,0.779902 3.91057,1.311021 6.09098,2.24509 12.26829,5.17999 17.526,8.32677 3.10909,1.86081 6.15379,3.98365 8.3206,5.8013 0.47846,0.40136 0.90817,0.72975 0.95491,0.72975 0.12877,0 1.08878,-0.49708 1.51949,-0.78677 2.578951,-1.73456 3.875679,-4.21672 3.699141,-7.08079 -0.190826,-3.09589 -2.174811,-7.789664 -4.618341,-10.926232 -0.5598,-0.718568 -2.18299,-2.457542 -2.29392,-2.457542 -0.0324,0 -0.10272,0.238125 -0.15616,0.529166 -0.10332,0.562693 -0.59233,1.629834 -0.74686,1.629834 -0.0508,0 -0.33342,-0.3048 -0.62804,-0.677334 -1.26221,-1.596028 -3.1527,-3.597281 -3.98448,-4.217923 -0.38895,-0.290222 -0.42031,-0.285632 -0.32476,0.04753 0.0433,0.151034 0.0788,0.533926 0.0788,0.850871 0,0.769724 -0.25627,1.279997 -0.77845,1.550027 -0.22372,0.115689 -0.23673,0.107954 -0.62005,-0.368501 -0.52741,-0.655566 -1.93128,-2.071759 -2.45384,-2.475379 -0.45406,-0.350716 -1.38685,-0.932292 -1.4953,-0.932292 -0.0363,0 0.0282,0.138666 0.14319,0.308148 0.30349,0.447217 0.29381,1.187605 -0.0237,1.814503 -0.3293,0.650134 -0.4637,0.644637 -1.26201,-0.05161 -1.35454,-1.18136 -2.81801,-2.131389 -4.04615,-2.626615 -0.39704,-0.1601 -0.7599,-0.291091 -0.80636,-0.291091 -0.0465,0 0.0861,0.178057 0.29467,0.395682 0.46546,0.485784 0.71878,0.990135 0.71837,1.430216 -3.4e-4,0.349401 -0.251,0.855228 -0.46439,0.937115 -0.0688,0.0264 -0.36549,-0.103844 -0.65933,-0.289424 -1.32853,-0.839038 -3.06099,-1.557572 -4.74981,-1.969967 -1.34361,-0.328096 -1.47221,-0.323311 -0.94069,0.035 0.92418,0.623033 1.50487,1.535577 1.3416,2.108323 -0.11365,0.398661 -0.35369,0.389119 -1.65686,-0.06586 -0.61887,-0.216066 -1.62051,-0.520175 -2.22587,-0.675797 -1.05396,-0.270943 -2.79521,-0.535307 -2.89151,-0.439002 -0.0252,0.02525 0.11177,0.126341 0.30448,0.224655 0.51936,0.264956 0.99588,0.781153 1.10903,1.201369 0.0884,0.328121 0.0667,0.875497 -0.0387,0.980971 -0.1246,0.1246 -0.88562,0.0118 -1.77716,-0.263405 -1.5078,-0.465445 -2.76399,-0.671552 -4.11445,-0.675071 -0.62865,-0.0016 -1.36027,0.04454 -1.62583,0.102615 l -0.48284,0.105594 0.9485,0.940646 0.94851,0.940646 -0.29634,0.06401 c -0.79828,0.172434 -2.87486,0.26782 -4.84919,0.222741 l -2.09752,-0.04789 0.17405,0.225917 c 1.05126,1.364563 1.84671,2.924089 2.42122,4.74697 l 0.19741,0.626385 -1.33082,-0.05029 c -0.73195,-0.02766 -1.45807,-0.08878 -1.61361,-0.13583 -0.33492,-0.101308 -0.3293,-0.06234 0.0964,0.669014 0.34077,0.585427 2.32974,2.578927 3.25227,3.259667 0.59561,0.43951 0.69601,0.55064 0.74468,0.82428 0.0309,0.17395 0.0553,0.34476 0.054,0.37958 -0.004,0.12027 -0.81876,0.27454 -1.45161,0.27492 -0.57244,3.4e-4 -1.37631,-0.1339 -1.81608,-0.30329 -0.50176,-0.19327 2.22421,2.74062 3.84808,4.14158 0.48895,0.42183 0.90048,0.81294 0.91452,0.86912 0.014,0.0562 -0.15258,0.18838 -0.37025,0.29375 -0.42698,0.20669 -1.3416,0.26161 -2.19527,0.1318 l -0.42333,-0.0644 0.29633,0.31082 c 0.89845,0.94238 2.9499,2.55826 4.40267,3.46789 1.13241,0.70903 1.16751,0.79172 0.45009,1.06015 -0.60442,0.22613 -1.37099,0.29885 -1.97409,0.18725 -0.25612,-0.0474 -0.47897,-0.0731 -0.49523,-0.057 -0.0572,0.0563 1.44355,1.18977 2.29582,1.73389 0.47409,0.30269 1.70118,0.97028 2.72686,1.48354 1.15726,0.5791 1.86488,0.98028 1.86488,1.05728 0,0.0683 -0.25536,0.2541 -0.56748,0.41299 -0.50623,0.25773 -0.6602,0.29337 -1.42666,0.33028 l -0.85918,0.0414 0.41066,0.25678 c 0.90708,0.56718 2.99607,1.33931 5.42617,2.00562 0.68576,0.18802 1.29753,0.39256 1.35948,0.45452 0.0938,0.0938 0.0748,0.15768 -0.11326,0.38113 -0.31947,0.37967 -0.84546,0.6645 -1.56421,0.84703 l -0.61958,0.15734 0.49672,0.18585 c 1.30205,0.48716 3.03953,0.80081 5.20434,0.9395 1.463,0.0937 2.37067,0.27804 2.37067,0.48138 0,0.4304 -0.62224,1.03199 -1.4768,1.42782 l -0.59223,0.27431 0.37835,0.0492 c 0.20809,0.027 0.47359,0.0662 0.59001,0.0869 0.46336,0.0827 3.64273,-0.0319 4.48733,-0.16179 z m 55.222539,0.0775 c 0.21591,-0.0514 0.19183,-0.0742 -0.35687,-0.33712 -0.32362,-0.15509 -0.70647,-0.36928 -0.85078,-0.47596 -0.30557,-0.22592 -0.59022,-0.65392 -0.59022,-0.88744 0,-0.26896 0.7162,-0.43257 2.32833,-0.5319 2.11007,-0.13002 3.73381,-0.41888 5.1165,-0.91025 l 0.62916,-0.22359 -0.58683,-0.14005 c -0.75034,-0.17908 -1.20999,-0.41899 -1.55445,-0.8113 -0.36815,-0.4193 -0.29897,-0.47514 1.04476,-0.84346 1.48774,-0.40778 3.06008,-0.92206 4.07153,-1.3317 0.86209,-0.34915 1.69752,-0.77891 1.78299,-0.9172 0.0265,-0.0428 -0.2083,-0.0766 -0.53254,-0.0766 -0.31894,0 -0.80695,-0.0588 -1.0845,-0.13073 -0.56264,-0.14575 -1.16845,-0.5022 -1.11702,-0.65725 0.0184,-0.0556 0.87001,-0.52013 1.89238,-1.03236 1.02238,-0.51223 2.25753,-1.19337 2.74478,-1.51363 0.87674,-0.57627 2.31826,-1.65805 2.26708,-1.70131 -0.0146,-0.0123 -0.28817,0.0176 -0.60799,0.0666 -0.67733,0.10366 -1.41269,0.007 -2.03267,-0.26727 -0.34607,-0.15309 -0.38507,-0.1953 -0.3025,-0.3274 0.0521,-0.0834 0.42491,-0.35963 0.82839,-0.61384 1.06087,-0.66839 2.05081,-1.38144 2.88354,-2.07699 0.87905,-0.73424 1.82598,-1.64111 1.77101,-1.69608 -0.0219,-0.0219 -0.33824,-0.002 -0.7029,0.0442 -0.91969,0.1166 -1.99152,-0.0826 -2.19228,-0.40744 -0.0238,-0.0385 0.42144,-0.47349 0.98946,-0.96656 0.56802,-0.49307 1.45339,-1.32858 1.96748,-1.8567 0.94503,-0.97081 1.95499,-2.16273 1.88872,-2.22899 -0.0198,-0.0198 -0.20601,0.0239 -0.41374,0.0973 -0.73013,0.25769 -2.74528,0.22284 -2.91416,-0.0504 -0.023,-0.0371 0.005,-0.22152 0.062,-0.40971 0.0859,-0.28308 0.23637,-0.44431 0.87166,-0.93363 0.97407,-0.75027 2.11971,-1.83306 2.64821,-2.50295 0.37777,-0.47883 0.85956,-1.232042 0.85956,-1.343803 0,-0.02593 -0.14287,-0.01141 -0.3175,0.03227 -0.35178,0.08799 -2.89983,0.207479 -2.89983,0.135989 0,-0.02479 0.15202,-0.48594 0.33781,-1.024773 0.57166,-1.65787 1.22876,-2.932825 2.08691,-4.049196 0.20311,-0.264222 0.36928,-0.493838 0.36928,-0.510259 0,-0.01642 -0.29527,-0.003 -0.65617,0.02988 -1.59781,0.145459 -5.28041,0.04167 -6.28649,-0.177168 l -0.29634,-0.06446 0.94619,-0.939271 0.94617,-0.93927 -0.43817,-0.08547 c -1.65139,-0.322104 -3.65228,-0.114657 -6.13441,0.635998 -1.27967,0.387001 -1.54075,0.327947 -1.53962,-0.348246 0.001,-0.681708 0.42468,-1.263482 1.21464,-1.668412 0.4656,-0.238656 0.29272,-0.276866 -0.69603,-0.153843 -1.03124,0.12831 -2.6947,0.552778 -4.12941,1.053707 -1.27138,0.443904 -1.59657,0.482206 -1.67299,0.197048 -0.19419,-0.724581 0.34762,-1.61823 1.38138,-2.278439 0.32679,-0.208712 0.34911,-0.240364 0.16933,-0.240166 -0.34597,3.81e-4 -2.13048,0.480229 -3.0149,0.810693 -0.92788,0.346704 -2.40901,1.07435 -2.99184,1.46983 -0.20955,0.142188 -0.42524,0.258687 -0.47931,0.258887 -0.0541,2.03e-4 -0.19694,-0.116861 -0.3175,-0.260134 -0.17138,-0.203672 -0.21919,-0.352159 -0.21919,-0.680706 0,-0.500515 0.18392,-0.892639 0.68559,-1.461718 0.4203,-0.476758 0.38847,-0.477659 -0.68559,-0.0194 -1.1985,0.511355 -2.61051,1.446365 -3.85568,2.553184 -0.80669,0.71706 -0.92341,0.724575 -1.25469,0.0808 -0.33969,-0.660126 -0.37097,-1.410129 -0.0755,-1.809812 0.26405,-0.35715 0.24273,-0.378829 -0.16933,-0.172109 -0.92968,0.4664 -2.45861,1.82829 -3.48226,3.101809 -0.48342,0.601419 -0.49569,0.609886 -0.71671,0.494878 -0.30106,-0.156658 -0.57312,-0.458412 -0.69251,-0.7681 -0.11394,-0.295568 -0.13459,-1.026336 -0.0439,-1.55282 0.0588,-0.341047 0.052,-0.361278 -0.0936,-0.281191 -0.70141,0.385776 -3.55306,3.422045 -4.6421,4.942637 l -0.1385,0.193375 -0.20761,-0.254 c -0.26099,-0.319304 -0.52008,-0.998926 -0.5944,-1.559179 -0.0314,-0.236768 -0.0831,-0.430488 -0.11479,-0.430488 -0.10825,0 -1.75438,1.733957 -2.28516,2.40708 -1.5463,1.960993 -2.79811,4.278951 -3.68027,6.814668 -0.78984,2.27039 -1.03303,3.56161 -0.95675,5.07989 0.13946,2.77564 1.5715,4.96652 4.25512,6.50995 0.95121,0.54706 0.88993,0.55644 1.90347,-0.29122 6.56736,-5.4925 17.65756,-11.39308 27.91733,-14.85352 0.95696,-0.322766 1.77498,-0.586848 1.81782,-0.586848 0.0428,0 -0.69677,0.393995 -1.64359,0.875544 -6.82041,3.468864 -14.60031,8.507614 -20.1838,13.072284 -2.3181,1.89512 -5.87934,5.34493 -5.87934,5.69538 0,0.24028 0.49397,1.58369 0.8248,2.24313 0.89509,1.78418 2.57866,3.43589 4.46687,4.38235 0.67924,0.34046 2.61849,1.04155 3.80423,1.37532 1.81309,0.51035 3.78007,0.88769 5.67843,1.08932 0.47819,0.0508 3.59317,-0.0136 3.87221,-0.0801 z"
       id="path94"
       inkscape:connector-curvature="0" />
  </g>
</svg>
